<?xml version="1.0"?><svg width="109.459" height="160.596" xmlns="http://www.w3.org/2000/svg">
 <g>
  <title>Layer 1</title>
  <g id="Original">
   <path d="m39.880001,31.658001c-4.248001,0 -8.482,-0.654001 -12.009001,1.161999c-2.856001,1.470001 -8.263,1.338001 -11.573999,1.338001c-1.575001,0 1.457998,3.559998 1.411999,4.764c-0.131001,3.473999 6.903,4.228001 9.046,5.135998c3.307001,1.402 1.927,3.643002 2.208,6.516003c0.752001,7.668999 -2.076,13.170998 -4.781,20.014996c-0.816999,2.068001 -2.41,4.971001 -2.209999,7.277c0.361,4.163002 -6.169,-0.658997 -8.078,-1.330994c-2.917,-1.027 -8.387,-2.464005 -11.47,-1.204002c-3.956,1.615997 -2.348,5.159996 -0.255,7.474998c4.001,4.428001 0.534,7.906998 1.726,12.556999c0.426,1.663002 7.787,9.32 8.963,8.305c3.848,-3.320999 -1.394,-4.975998 -2.753,-7.503998c-0.617999,-1.149002 -1.488999,-12.422005 -1.238999,-12.404999c1.151999,0.077995 3.724999,2.107994 4.804999,2.632996c3.218,1.562004 6.395,3.237999 9.292,5.348999c6.193001,2.729004 12.58,5.223999 19.139002,6.935005c8.982998,2.343994 17.305,3.326996 25.907001,7.328995c4.910995,2.284004 4.041,7.277 7.735001,10.999001c3.677994,3.705002 8.988998,6.049004 13.233994,9.049004c3.424004,2.420006 6.444,6.254997 8.356003,9.945c2.217003,4.281006 1.737,10.005997 2.503998,14.675995c0.531006,3.236008 4.540001,5.647003 6.464005,8.184998c4.168999,5.496002 3.557999,-3.746994 1.861,-4.446991c-3.193001,-1.318008 -4.172005,-7.787003 -4.351006,-10.973007c-0.286995,-5.102997 1.756004,-9.108002 -1.893997,-13.093002c-6.814003,-7.438995 -12.43,-16.163994 -7.207001,-26.603996c2.178001,-4.353996 -3.519997,-8.244995 2.229004,-9.374001c2.611,-0.511993 5.549995,-0.000999 7.385994,-2.334c2.313004,-2.938995 0.737007,-6.690994 -1.382996,-9.236c-0.257004,-0.380997 -0.584,-0.676994 -0.981003,-0.889c0.369003,0 -0.039001,5.071007 -0.980995,5.719002c-2.113007,1.454002 -5.412003,3.958 -8.101006,4.043999c-2.310997,0.073006 -6.141998,-2.487999 -7.667999,-4.014c-1.119995,-1.119995 -5.035995,-1.500999 -6.613998,-1.827995c-3.861,-0.799004 -6.857002,-1.504005 -10.585999,-3.024002c-4.694,-1.913002 -9.325001,-4.134003 -13.457001,-7.096001c-9.981998,-7.154999 -11.799999,-19.563999 -10.533001,-31.215c0.272999,-2.507999 -0.853001,-6.438 0.595001,-8.579998c0.343998,-0.509003 1.903,-0.362 2.501999,-0.891003c0.763,-0.674 2.455002,-3.201998 2.758999,-4.231998c1.248001,-4.223 -5.517998,1.209999 -4.542,1.146c-1.474998,0.098 1.675003,-9.004 1.855003,-9.364c0.363998,-0.727999 5.297997,-9.450999 2.32,-9.351999c-1.868,0.062 -0.948002,5.445 -3.157001,5.004999c-2.389999,-0.476 -5.832001,-6.830999 -4.787998,-9.216c1.834,-4.192 -1.823002,-5.106 -2.352001,-1.447c-0.102001,0.705 1.679001,5.874 -1.055,5.101c-2.824001,-0.799 -2.410999,-12.79 -3.778999,-12.665c-2.389002,0.219 -0.306,10.836 -1.019001,12.176c-0.216999,0.408 -3.681,-3.516 -3.902,-4.458c-0.979,-4.16 -1.427999,-2.612 -2.588999,0.034c-1.537001,3.502 10.289,9.671 12.421999,10.911c1.701,0.987999 3.098,1.841 3.681,3.816999c0.508999,1.725 1.125,4.088001 -0.047001,5.711c-0.834,1.155001 -3.045998,1.791 -3.045998,3.467001" fill="#ffffff" id="svg_1"/>
  </g>
 </g>
</svg>